<?xml version="1.0" encoding="utf-8"?>
<!-- Generator: Adobe Illustrator 21.0.1, SVG Export Plug-In . SVG Version: 6.00 Build 0)  -->
<svg version="1.1" id="Warstwa_1" xmlns="http://www.w3.org/2000/svg" xmlns:xlink="http://www.w3.org/1999/xlink" x="0px" y="0px"
	 viewBox="0 0 21.5 24" style="enable-background:new 0 0 21.5 24;" xml:space="preserve">
<style type="text/css">
	.st0{fill:#020203;}
</style>
<path class="st0" d="M21.5,13.8v7.1c0,0.4-0.1,0.8-0.3,1.2c-0.2,0.4-0.4,0.7-0.8,1c-0.3,0.3-0.7,0.5-1.1,0.7
	C18.9,23.9,18.5,24,18,24H3.5c-0.5,0-0.9-0.1-1.4-0.2c-0.4-0.2-0.8-0.4-1.1-0.7c-0.3-0.3-0.6-0.6-0.8-1C0.1,21.7,0,21.3,0,20.9v-7.1
	c0-0.4,0.1-0.8,0.3-1.2c0.2-0.4,0.4-0.7,0.8-1c0.3-0.3,0.7-0.5,1.1-0.7c0.4-0.2,0.9-0.3,1.4-0.3H18c0.5,0,0.9,0.1,1.4,0.3
	c0.4,0.2,0.8,0.4,1.1,0.7c0.3,0.3,0.6,0.6,0.8,1C21.4,13,21.5,13.4,21.5,13.8z M4.5,21.7v-7.5h1.8v-1.1H1.5v1.1H3v7.5H4.5z M5.2,4.3
	L3.2,0H5l1,3.2l1-3.2h1.7L6.8,4.3v5H5.2V4.3z M9.9,15.3H8.4v4c0,0.3,0,0.5,0,0.7c0,0.2,0,0.3-0.1,0.3c0,0.2-0.2,0.3-0.4,0.4
	c-0.2,0.1-0.4,0-0.5-0.3c0,0,0-0.1,0-0.3c0-0.2,0-0.4,0-0.7l0-4H6l0,3.9c0,0.3,0,0.6,0,0.8c0,0.2,0,0.4,0,0.5c0,0.2,0,0.4,0.1,0.6
	c0,0.2,0.1,0.4,0.3,0.5c0.2,0.1,0.4,0.2,0.6,0.2c0.2,0,0.5,0,0.7-0.1c0.2-0.1,0.4-0.2,0.6-0.3c0.2-0.1,0.3-0.3,0.4-0.4l0,0.8l1.2,0
	V15.3z M8.5,5c0-0.6,0.1-1.1,0.2-1.5C8.8,3.1,9,2.8,9.3,2.7c0.3-0.2,0.7-0.3,1.1-0.3c0.4,0,0.7,0.1,1,0.2c0.3,0.1,0.5,0.3,0.7,0.6
	c0.1,0.2,0.2,0.4,0.3,0.7c0.1,0.3,0.1,0.6,0.1,1.1v1.7c0,0.6,0,1.1-0.1,1.3c0,0.2-0.1,0.5-0.3,0.8c-0.2,0.3-0.4,0.4-0.6,0.5
	c-0.3,0.1-0.6,0.2-0.9,0.2c-0.4,0-0.7-0.1-1-0.2C9.3,9.2,9.1,9,8.9,8.8C8.8,8.6,8.7,8.4,8.6,8C8.5,7.8,8.5,7.3,8.5,6.7V5z M9.8,7.6
	c0,0.2,0.1,0.3,0.2,0.5c0.1,0.1,0.3,0.2,0.5,0.2c0.2,0,0.3-0.1,0.5-0.2c0.1-0.1,0.2-0.3,0.2-0.5V4.1c0-0.2-0.1-0.4-0.2-0.5
	c-0.1-0.1-0.3-0.2-0.5-0.2c-0.2,0-0.3,0.1-0.5,0.2C9.9,3.8,9.8,3.9,9.8,4.1V7.6z M14.6,19.8v-3.3c0-0.6-0.2-1.1-0.7-1.4
	c-0.2-0.1-0.3-0.1-0.5-0.1c-0.4,0-0.8,0.2-1.2,0.5v-2.5h-1.5v8.5l1.2,0l0.1-0.5c0.4,0.3,0.8,0.5,1.1,0.6c0.3,0.1,0.6,0,0.8-0.1
	c0.2-0.1,0.4-0.4,0.5-0.7C14.6,20.6,14.6,20.2,14.6,19.8z M12.9,15.9c0.2,0,0.3,0.1,0.5,0.2c0.1,0.1,0.2,0.2,0.2,0.3v3.7
	c0,0.1-0.1,0.2-0.2,0.3c-0.1,0.1-0.3,0.1-0.5,0.1c-0.2,0-0.3,0-0.5-0.1c-0.1-0.1-0.2-0.2-0.2-0.3v-3.7c0-0.1,0.1-0.2,0.2-0.3
	C12.5,15.9,12.7,15.9,12.9,15.9z M13.6,8.7c0-0.1-0.1-0.2-0.1-0.3c0-0.1,0-0.2-0.1-0.3c0-0.1,0-0.3,0-0.4V7V2.6h1.4v5.1
	c0,0.1,0,0.2,0.1,0.3c0.1,0.1,0.2,0.1,0.4,0.1c0.2,0,0.3-0.1,0.4-0.1c0.1-0.1,0.2-0.2,0.2-0.3V2.6h1.3v6.6h-1.6l0-0.5
	c-0.2,0.2-0.3,0.4-0.4,0.5c-0.2,0.1-0.4,0.2-0.6,0.2c-0.2,0-0.5-0.1-0.6-0.2C13.8,9,13.7,8.9,13.6,8.7z M19.3,19.4h-1.1v0.2v0.6
	c0,0.2-0.1,0.3-0.2,0.4c-0.1,0.1-0.3,0.1-0.4,0.1h-0.2c-0.2,0-0.3,0-0.4-0.1c-0.1-0.1-0.2-0.2-0.2-0.4v-0.1v-0.6v-0.8h2.6v-0.9
	c0-0.3,0-0.7,0-1c0-0.3,0-0.5-0.1-0.7c0-0.3-0.2-0.5-0.4-0.7c-0.2-0.2-0.5-0.3-0.8-0.4c-0.3-0.1-0.6-0.1-0.9,0
	c-0.3,0-0.6,0.1-0.8,0.3c-0.3,0.2-0.5,0.5-0.6,0.8c-0.1,0.3-0.2,0.8-0.2,1.4v2c0,0.8,0.2,1.4,0.7,1.8c0.4,0.3,0.8,0.5,1.3,0.5
	c0,0,0.1,0,0.1,0c0.5,0,1-0.2,1.3-0.6c0.3-0.3,0.4-0.7,0.4-1.1C19.4,19.8,19.3,19.6,19.3,19.4z M18.2,17.5h-1.4l0-0.8
	c0-0.2,0.1-0.3,0.2-0.4c0.1-0.1,0.3-0.2,0.5-0.2h0.1c0.2,0,0.4,0.1,0.5,0.2c0.1,0.1,0.2,0.3,0.2,0.4L18.2,17.5z"/>
</svg>
