<?xml version="1.0" encoding="utf-8"?>
<!-- Generator: Adobe Illustrator 21.0.1, SVG Export Plug-In . SVG Version: 6.00 Build 0)  -->
<svg version="1.1" id="Warstwa_1" xmlns="http://www.w3.org/2000/svg" xmlns:xlink="http://www.w3.org/1999/xlink" x="0px" y="0px"
	 viewBox="0 0 62.4 114.3" style="enable-background:new 0 0 62.4 114.3;" xml:space="preserve">
<style type="text/css">
	.st0{fill:none;stroke:#1E1E1C;stroke-width:4;}
	.st1{fill:none;stroke:#1E1E1C;stroke-width:4;stroke-linecap:round;}
</style>
<path class="st0" d="M44.5,57.2c9.4-4.8,15.9-14.7,15.9-26C60.4,15.1,47.3,2,31.2,2C15.1,2,2,15.1,2,31.2c0,11.3,6.5,21.1,15.9,26
	C8.5,62,2,71.8,2,83.1c0,16.1,13.1,29.2,29.2,29.2c16.1,0,29.2-13.1,29.2-29.2C60.4,71.8,53.9,62,44.5,57.2z"/>
<circle class="st1" cx="31.1" cy="83.1" r="16.8"/>
<circle class="st1" cx="31.1" cy="83.1" r="16.8"/>
<path class="st0" d="M30.4,83V13c0,0,13.7,3.8,13.7,17.5C44.2,44.2,30.7,48,30.7,48"/>
<polyline class="st0" points="25.1,79.3 31.2,85.5 37.7,79 "/>
</svg>
