<?xml version="1.0" encoding="utf-8"?>
<!-- Generator: Adobe Illustrator 21.0.1, SVG Export Plug-In . SVG Version: 6.00 Build 0)  -->
<svg version="1.1" id="Warstwa_1" xmlns="http://www.w3.org/2000/svg" xmlns:xlink="http://www.w3.org/1999/xlink" x="0px" y="0px"
	 viewBox="0 0 105 113.2" style="enable-background:new 0 0 105 113.2;" xml:space="preserve">
<style type="text/css">
	.st0{fill:none;stroke:#1E1E1C;stroke-width:4;stroke-linejoin:round;}
	.st1{fill:none;stroke:#1E1E1C;stroke-width:5;stroke-linejoin:round;}
	.st2{fill:none;stroke:#1E1E1C;stroke-width:4;stroke-miterlimit:10;}
</style>
<path class="st0" d="M67.7,50c0-18.1-14.5-32.7-32.6-32.7C17,17.3,2,31.9,2,50c0,14.1,9,26.1,21,30.7v30.5h23V80.7
	C59,76.1,67.7,64.1,67.7,50z"/>
<polyline class="st0" points="12.8,26.2 23.9,80.7 35.2,50 46.6,80.7 57.7,26.2 "/>
<line class="st0" x1="68" y1="82.3" x2="81.5" y2="101.5"/>
<line class="st0" x1="81.5" y1="1.2" x2="68" y2="20.3"/>
<line class="st0" x1="82" y1="52.2" x2="105" y2="52.2"/>
<line class="st0" x1="23" y1="90.2" x2="46" y2="90.2"/>
<line class="st0" x1="23" y1="97.2" x2="46" y2="97.2"/>
<line class="st1" x1="23" y1="103.7" x2="46" y2="103.7"/>
<line class="st2" x1="79.3" y1="34.3" x2="99.4" y2="23.4"/>
<line class="st2" x1="77.3" y1="67.9" x2="96.8" y2="80.6"/>
</svg>
