<?xml version="1.0" encoding="utf-8"?>
<!-- Generator: Adobe Illustrator 21.0.1, SVG Export Plug-In . SVG Version: 6.00 Build 0)  -->
<svg version="1.1" id="Warstwa_1" xmlns="http://www.w3.org/2000/svg" xmlns:xlink="http://www.w3.org/1999/xlink" x="0px" y="0px"
	 viewBox="0 0 153.4 90" style="enable-background:new 0 0 153.4 90;" xml:space="preserve">
<style type="text/css">
	.st0{fill:none;stroke:#1E1E1C;stroke-width:4;stroke-miterlimit:10;}
</style>
<g>
	<path class="st0" d="M38.4,35.3c-6.8,0-7.3,5.7-6,8.3c1.3,2.7,4.9,3.6,8.2,5c3.4,1.4,5.3,7.1,3.9,9.6c-1.4,2.5-3.5,5.3-8.3,5.3
		s-9.6-5.9-11.8-9.3c-2.1-3.4-7.2-9.1-2.9-20.6c4.3-11.5,24.4-10.3,24.4-10.3V2.1c0,0,12.8-1.8,21.6,6.8s7.1,18.9,7.1,18.9l0.3,1.8"
		/>
	<path class="st0" d="M66.8,30.2h24v19h-13v24.7c0,0-1.6,9.8-11.2,9.8s-12.5-7.8-12.5-7.8s-7.8,7.8-20.4,7.8
		c-12.6,0-19.5-12.4-19.5-12.4l13-12.6"/>
	<line class="st0" x1="8.3" y1="47" x2="17.9" y2="58.9"/>
	<line class="st0" x1="1.3" y1="54.2" x2="12.3" y2="63.6"/>
</g>
<g>
	<path class="st0" d="M115.1,54.7c6.8,0,7.3-5.7,6-8.3c-1.3-2.7-4.9-3.6-8.2-5c-3.4-1.4-5.3-7.1-3.9-9.6c1.4-2.5,3.5-5.3,8.3-5.3
		s9.6,5.9,11.8,9.3c2.1,3.4,6.9,9.1,2.5,20.6c-4.3,11.5-24.7,10.3-24.7,10.3v21.2c0,0-12.4,1.8-21.3-6.8c-8.9-8.6-6.9-18.9-6.9-18.9
		l-0.2-1.8"/>
	<path class="st0" d="M86.8,61.2h-25v-19h13v-26c0,0,2-9.8,11.6-9.8c9.6,0,12.7,7.8,12.7,7.8s7.9-7.8,20.5-7.8
		c12.6,0,19.6,12.4,19.6,12.4l-12.8,13.2"/>
	<line class="st0" x1="145.1" y1="43.1" x2="135.5" y2="31.1"/>
	<line class="st0" x1="152.1" y1="35.8" x2="141.1" y2="26.5"/>
</g>
</svg>
