<?xml version="1.0" encoding="utf-8"?>
<!-- Generator: Adobe Illustrator 21.0.1, SVG Export Plug-In . SVG Version: 6.00 Build 0)  -->
<svg version="1.1" id="Warstwa_1" xmlns="http://www.w3.org/2000/svg" xmlns:xlink="http://www.w3.org/1999/xlink" x="0px" y="0px"
	 viewBox="0 0 243.8 95.5" style="enable-background:new 0 0 243.8 95.5;" xml:space="preserve">
<style type="text/css">
	.st0{fill:#1E1E1C;}
</style>
<g>
	<path class="st0" d="M18,66.8c0.1,0.1,0.2,0.1,0.2,0.1c0.1,0,0.1,0,0.2-0.1l2.1-1.7c0.1-0.1,0.1-0.1,0.1-0.2c0-0.1,0-0.2-0.1-0.2
		l-10.4-13c-0.1-0.1-0.1-0.1-0.2-0.1c-0.1,0-0.2,0-0.2,0.1l-2.1,1.7c-0.1,0.1-0.1,0.1-0.1,0.2c0,0.1,0,0.2,0.1,0.2L18,66.8z"/>
	<path class="st0" d="M14.1,69.7L2.3,59.5c-0.1-0.1-0.1-0.1-0.2-0.1c-0.1,0-0.2,0-0.2,0.1l-1.7,2C0,61.7,0,61.9,0.1,62L12,72.2
		c0.1,0,0.1,0.1,0.2,0.1c0,0,0,0,0,0c0.1,0,0.2,0,0.2-0.1l1.7-2C14.3,70,14.3,69.8,14.1,69.7z"/>
	<path class="st0" d="M61.7,42.9h3.1c0.2,0,0.3-0.1,0.3-0.3V30.4c4.6-1.1,8-5.4,8-10.2c0-4.9-3.5-9.2-8.3-10.3l-1.4-0.2l-0.1,0
		c-0.2,0-0.4,0-0.6,0c0,0-0.1,0-0.1,0h-0.9c-0.2,0-0.3,0.1-0.3,0.3v32.5C61.4,42.8,61.5,42.9,61.7,42.9z M65.1,14
		c2.5,1,4.2,3.5,4.2,6.3c0,2.8-1.7,5.3-4.2,6.3V14z"/>
	<path class="st0" d="M105.4,30.2H85.5c0.1-1,0.2-2.1,0.2-3.1C85.7,12.2,72.8,0,57,0c-1.5,0-5.3,0.3-5.5,0.3c-0.2,0-0.3,0.2-0.3,0.3
		v23.5c-1.8-0.2-4-0.3-5.3-0.3C39,23.8,32.7,26,28,30c-4.9,4.2-7.6,10.1-7.6,16.8c0,0.2,0,0.3,0,0.5c0.1,8.4,4.4,13.4,7.5,17.1
		l0.3,0.4L13.7,79.1c-0.1,0.1-0.1,0.3-0.1,0.4l0.5,0.9c5.3,9.4,15.2,15.2,26,15.2c1.7,0,3.4-0.1,5-0.4c5.9-1,11.3-3.7,15.6-7.9
		c4.8,4.9,9.1,7.9,15.5,7.9h0.1c4.5,0,8.5-1.8,11.2-5.2c2.3-2.8,3.7-6.5,4-10.6c0-0.1,0.2-1.7,0.2-2.5c0-0.7,0-19.9,0-22.6h13.5
		c0.1,0,0.2,0,0.2-0.1c0.1-0.1,0.1-0.1,0.1-0.2l0-23.4C105.7,30.3,105.5,30.2,105.4,30.2z M23.7,47.1c0-0.1,0-0.3,0-0.4
		c0-11.5,9.1-19.6,22.2-19.7H46c1.7,0,5.2,0.2,6.5,0.5l1.6,0.3c0.1,0,0.2,0,0.3-0.1c0.1-0.1,0.1-0.1,0.1-0.2V3.4
		c0.8-0.1,1.7-0.1,2.5-0.1c6.7,0,13,2.4,17.8,6.9c4.9,4.5,7.5,10.5,7.5,17c0,1-0.1,2.1-0.2,3.1h-6.9c-0.2,0-0.3,0.1-0.3,0.3v3.2
		c0,0.2,0.1,0.3,0.3,0.3l13.1,0c0,1.9,0,11.9,0,17.8c0,4.4-0.1,7.9-0.2,8.8c-0.3,1.7-1,3.4-2.1,4.6c-1.4,1.6-3.1,2.5-5.2,2.8
		c-0.4,0.1-0.8,0.1-1.2,0.1c-1.9,0-3.3-0.7-5.5-2.5c-1.2-1-5.9-6.4-10.4-11.6c-3.6-4.1-6.9-8-8.6-9.7c-4.1-4.2-7.7-7-12.1-7.1
		c-0.2,0-0.4,0-0.6,0c-4.3,0.3-8.8,3.7-8.7,8.9c0,3.1,1.7,5.8,4.5,7c0,0,0.1,0,0.1,0l0.3,0.1c3,1.1,5.6,2.1,7.2,3.4
		c1.5,1.2,2.5,2.6,2.6,5.8c-0.2,1.1-0.9,2.8-2.1,4.1c-1.5,1.6-3.3,2.4-5.5,2.5c-0.1,0-0.3,0-0.4,0c-2.6,0-4.1-0.9-5.6-2.1
		c-0.7-0.6-1.4-1.4-2.1-2.2c-0.4-0.4-0.7-0.8-1.1-1.2c-0.4-0.5-0.8-1-1.3-1.6C27.3,58.5,23.9,54.4,23.7,47.1z M88.4,77.7l0,0.2
		c-0.1,3.9-1.2,7.4-3.3,9.9c-2.2,2.6-5.1,4-8.7,4c-5.8,0-9.2-2.6-14.4-8.1l-1-1c-0.1-0.1-0.1-0.1-0.2-0.1c-0.1,0-0.2,0-0.2,0.1l-1,1
		c-4,4.3-9.2,7.1-15,8.1c-1.5,0.3-3,0.4-4.5,0.4c-9,0-17.6-4.8-22.4-12.4l12.4-12.3c0.7,0.8,1.4,1.6,2.3,2.4c2.2,2,4.9,3,7.9,3
		l0.1,0c0.2,0,0.3,0,0.5,0c3.1-0.1,6-1.4,8.1-3.8c1.6-1.8,2.7-4.1,3.1-6.3l0-0.2l0-0.1c0-3.8-1.4-6.9-4.1-8.9
		c-2.1-1.6-4.7-2.6-7.5-3.6l-1-0.4c-1.4-0.7-2.2-1.8-2.2-3.5c0-2.3,1.7-4.9,5.2-5.2c0.1,0,0.2,0,0.4,0l0.1,0c2.5,0,5.5,1.9,9.4,5.9
		c1.5,1.5,4.7,5.3,8.1,9.2c4.8,5.5,9.7,11.2,11.1,12.4c2.8,2.3,5.2,3.3,7.9,3.3c0.6,0,1.2,0,1.8-0.1c3.4-0.5,5.7-2.1,7.1-3.6V77.7z
		 M102.4,51H91.9l0-17h10.5V51z"/>
	<path class="st0" d="M125.4,41.3c-1.5,0-2.4-0.5-2.7-1.6h-3c0.5,2.8,2.5,4.3,5.5,4.3c2.7,0,5.1-1.5,5.1-4.3c0-2.7-2.1-3.6-5-4.6
		c-1.3-0.5-2.5-0.9-2.5-1.9c0-0.7,0.7-1.4,2.2-1.4c1.1,0,2,0.6,2.3,1.6h3c-0.5-2.8-2.7-4.3-5.2-4.3c-3.4,0-5.1,2-5.1,4.1
		c0,2.7,1.9,3.5,4.4,4.3c1.7,0.6,3.1,1.1,3.1,2.2C127.5,40.8,126.4,41.3,125.4,41.3z"/>
	<path class="st0" d="M132.5,41.1c0,2.2,1.5,2.9,3.1,2.9c0.6,0,1.2-0.1,1.9-0.2v-2.3c-0.5,0.1-0.9,0.1-1.2,0.1
		c-0.8,0-1.1-0.2-1.1-0.9V38h2.3v-2.4h-2.3v-2.9H133l-0.4,2.9h-1.5V38h1.5V41.1z"/>
	<path class="st0" d="M142.7,44c2.5,0,4.3-2,4.3-4.3c0-2.4-1.8-4.3-4.3-4.3c-2.5,0-4.3,2-4.3,4.3C138.4,42,140.2,44,142.7,44z
		 M142.7,37.7c1,0,1.7,0.7,1.7,1.9c0,1.2-0.7,1.9-1.7,1.9c-1,0-1.7-0.7-1.7-1.9C141,38.5,141.7,37.7,142.7,37.7z"/>
	<polygon class="st0" points="152.4,43.8 153.8,39.4 155.3,43.8 157.1,43.8 160,35.5 157.4,35.5 156,39.8 154.6,35.5 153,35.5 
		151.6,39.8 150.3,35.5 147.6,35.5 150.5,43.8 	"/>
	<path class="st0" d="M164.4,38.7c-2.3,0-3.8,0.7-3.8,2.6c0,1.5,1.2,2.5,3,2.5c1.2,0,1.9-0.5,2.3-1.1l0.2,1h2.3v-5.3
		c0-1.8-1.2-3.1-3.6-3.1c-2.4,0-3.5,1.4-3.9,2.8h2.4c0.2-0.5,0.6-0.9,1.3-0.9c0.9,0,1.3,0.6,1.3,1.1v0.3H164.4z M165.9,40.8
		c0,0.7-0.9,1.1-1.8,1.1c-0.6,0-1-0.3-1-0.8c0-0.4,0.4-0.8,1.3-0.8h1.5V40.8z"/>
	<path class="st0" d="M173.2,39.2c0.3-0.7,1.6-1.6,3.1-1.4v-2.4c-1.9-0.2-2.6,0.7-3.1,1.2l-0.2-1h-2.5v8.2h2.7V39.2z"/>
	<polygon class="st0" points="183.8,41.6 179.9,41.6 183.6,37.2 183.6,35.5 176.9,35.5 176.9,37.7 180.4,37.7 176.8,42.1 
		176.8,43.8 183.8,43.8 	"/>
	<polygon class="st0" points="184.9,48.9 187.3,48.9 193.8,35.5 191.1,35.5 189,40.3 186.9,35.5 184.2,35.5 187.8,42.9 	"/>
	<path class="st0" d="M196.7,40.6c0.8,0.2,1.4,0.3,1.4,0.8c0,0.4-0.4,0.5-1,0.5c-0.6,0-1-0.2-1.1-0.6h-2.4c0.3,1.7,1.6,2.8,3.5,2.8
		c1.8,0,3.4-0.9,3.4-2.5c0-1.7-1.5-2.4-2.7-2.8c-1-0.3-1.5-0.4-1.5-0.7c0-0.3,0.3-0.5,0.8-0.5c0.5,0,0.8,0.2,0.9,0.6h2.4
		c-0.2-1.4-1.3-2.8-3.4-2.8c-2,0-3.2,1.1-3.2,2.5C193.9,39.6,195.1,40.1,196.7,40.6z"/>
	<polygon class="st0" points="208.3,41.6 204.5,41.6 208.2,37.2 208.2,35.5 201.5,35.5 201.5,37.7 205,37.7 201.4,42.1 201.4,43.8 
		208.3,43.8 	"/>
	<path class="st0" d="M213.6,35.3c-2.5,0-4.3,2-4.3,4.3c0,2.4,1.8,4.3,4.4,4.3c2.3,0,3.6-1.3,4-3.1h-2.4c-0.2,0.6-0.8,1-1.5,1
		c-1.2,0-1.8-0.8-2-1.7h6.1c0-0.3,0-0.5,0-0.7C217.8,37.4,216.1,35.3,213.6,35.3z M211.8,38.8c0.3-0.7,0.9-1.4,1.9-1.4
		c0.8,0,1.6,0.7,1.7,1.4H211.8z"/>
	<path class="st0" d="M225,35.3c-1.3,0-2.2,0.6-2.7,1.2l-0.2-1h-2.5v8.2h2.7v-4.6c0.3-0.8,1-1.4,1.9-1.4s1.4,0.5,1.4,1.5v4.5h2.7
		v-5.1C228.3,36.5,226.8,35.3,225,35.3z"/>
	<path class="st0" d="M231.9,30.3c-0.9,0-1.6,0.7-1.6,1.6c0,0.9,0.7,1.6,1.6,1.6c0.9,0,1.6-0.7,1.6-1.6
		C233.5,31,232.8,30.3,231.9,30.3z"/>
	<rect x="230.6" y="35.5" class="st0" width="2.7" height="8.2"/>
	<path class="st0" d="M243.8,39.5c0-2.1-1.7-4.2-4.3-4.2c-2.5,0-4.3,2-4.3,4.3c0,2.4,1.8,4.3,4.4,4.3c2.3,0,3.6-1.3,4-3.1h-2.4
		c-0.2,0.6-0.8,1-1.5,1c-1.2,0-1.8-0.8-2-1.7h6.1C243.8,39.9,243.8,39.7,243.8,39.5z M237.8,38.8c0.3-0.7,0.9-1.4,1.9-1.4
		c0.8,0,1.6,0.7,1.7,1.4H237.8z"/>
	<path class="st0" d="M126.1,54h-5.5v14.4h2.9v-5.3h2.6c3,0,5.1-1.3,5.1-4.5C131.3,55.3,129.1,54,126.1,54z M126.2,60.5h-2.6v-3.8
		h2.6c1.4,0,2.2,0.6,2.2,1.9C128.4,59.9,127.5,60.5,126.2,60.5z"/>
	<path class="st0" d="M135.7,60c-2.5,0-4.3,2-4.3,4.3c0,2.4,1.8,4.3,4.4,4.3c2.3,0,3.6-1.3,4-3.1h-2.4c-0.2,0.6-0.8,1-1.5,1
		c-1.2,0-1.8-0.8-2-1.7h6.1c0-0.3,0-0.5,0-0.7C140,62.1,138.3,60,135.7,60z M134,63.4c0.3-0.7,0.9-1.4,1.9-1.4
		c0.8,0,1.6,0.7,1.7,1.4H134z"/>
	<path class="st0" d="M141.4,64.3c0,2.8,1.8,4.3,3.8,4.3c1,0,1.9-0.6,2.3-1.2l0.2,1h2.5V55h-2.7v6.1c-0.4-0.5-1.3-1.1-2.5-1.1
		C143,60,141.4,61.9,141.4,64.3z M147.5,64.3c0,1.2-0.8,1.9-1.8,1.9c-1,0-1.7-0.7-1.7-1.9c0-1.2,0.7-1.9,1.7-1.9
		C146.7,62.4,147.5,63.1,147.5,64.3z"/>
	<path class="st0" d="M157.4,68.4h2.3v-5.3c0-1.8-1.3-3.1-3.6-3.1c-2.4,0-3.5,1.4-3.9,2.8h2.4c0.2-0.5,0.6-0.9,1.4-0.9
		c0.9,0,1.3,0.6,1.3,1.1v0.3h-1.5c-2.3,0-3.7,0.7-3.7,2.6c0,1.5,1.2,2.5,3,2.5c1.2,0,1.9-0.5,2.3-1.1L157.4,68.4z M155.3,66.6
		c-0.6,0-1-0.3-1-0.8c0-0.4,0.4-0.8,1.3-0.8h1.5v0.4C157.1,66.2,156.3,66.6,155.3,66.6z"/>
	<path class="st0" d="M169.7,60h-4.3c-2,0-3.8,1.6-3.8,3.6c0,0.6,0.2,1.2,0.5,1.5c-0.5,0.4-1,1.1-1,2c0,1,0.8,1.8,1.5,2.1
		c-0.6,0.3-1.2,1.3-1.2,2.3c0,1.7,1.4,3.2,4.2,3.2c2.7,0,4.2-1.4,4.2-3.4c0-2-1.4-3.2-4-3.2h-1.6c-0.7,0-1-0.6-1-0.9
		c0-0.4,0.2-0.6,0.3-0.7c0.5,0.4,1,0.7,2,0.7c1.8,0,3.6-1.6,3.6-3.2c0-0.9-0.3-1.5-0.7-1.9l1.3-0.1V60z M164.4,70.2h1.4
		c1.2,0,1.6,0.4,1.6,1.1c0,0.8-0.5,1.3-1.7,1.3c-1.2,0-1.8-0.5-1.8-1.3C163.9,70.8,164.1,70.4,164.4,70.2z M165.4,65
		c-0.8,0-1.4-0.6-1.4-1.4c0-0.8,0.6-1.4,1.4-1.4c0.8,0,1.4,0.6,1.4,1.4C166.8,64.4,166.2,65,165.4,65z"/>
	<path class="st0" d="M175.1,60c-2.5,0-4.3,2-4.3,4.3c0,2.4,1.8,4.3,4.3,4.3c2.5,0,4.3-2,4.3-4.3C179.3,62,177.6,60,175.1,60z
		 M175.1,66.3c-1,0-1.7-0.7-1.7-1.9c0-1.2,0.7-1.9,1.7-1.9c1,0,1.7,0.7,1.7,1.9C176.7,65.5,176,66.3,175.1,66.3z"/>
	<path class="st0" d="M185,68.1h-1.6c-0.7,0-1-0.6-1-0.9c0-0.4,0.2-0.6,0.3-0.7c0.5,0.4,1,0.7,2,0.7c1.8,0,3.6-1.6,3.6-3.2
		c0-0.9-0.3-1.5-0.7-1.9l1.3-0.1V60h-4.3c-2,0-3.8,1.6-3.8,3.6c0,0.6,0.2,1.2,0.5,1.5c-0.5,0.4-1,1.1-1,2c0,1,0.8,1.8,1.5,2.1
		c-0.6,0.3-1.2,1.3-1.2,2.3c0,1.7,1.4,3.2,4.2,3.2c2.7,0,4.2-1.4,4.2-3.4C189,69.3,187.7,68.1,185,68.1z M184.6,62.2
		c0.8,0,1.4,0.6,1.4,1.4c0,0.9-0.6,1.4-1.4,1.4c-0.8,0-1.4-0.6-1.4-1.4C183.3,62.7,183.8,62.2,184.6,62.2z M184.8,72.6
		c-1.2,0-1.8-0.5-1.8-1.3c0-0.6,0.2-0.9,0.6-1.1h1.4c1.2,0,1.6,0.4,1.6,1.1C186.6,72.1,186.1,72.6,184.8,72.6z"/>
	<polygon class="st0" points="192.7,58.6 197,55.9 195.5,53.8 191.5,57.2 	"/>
	<path class="st0" d="M194.2,60c-2.5,0-4.3,2-4.3,4.3c0,2.4,1.8,4.3,4.3,4.3c2.5,0,4.3-2,4.3-4.3C198.5,62,196.8,60,194.2,60z
		 M194.2,66.3c-1,0-1.7-0.7-1.7-1.9c0-1.2,0.7-1.9,1.7-1.9c1,0,1.7,0.7,1.7,1.9C195.9,65.5,195.2,66.3,194.2,66.3z"/>
	<polygon class="st0" points="207.6,64.5 206.2,60.2 204.6,60.2 203.2,64.5 201.8,60.2 199.2,60.2 202,68.4 203.9,68.4 205.4,64.1 
		206.8,68.4 208.7,68.4 211.6,60.2 208.9,60.2 	"/>
	<polygon class="st0" points="131,78.7 119.6,78.7 119.6,81.4 123.8,81.4 123.8,93.1 126.7,93.1 126.7,81.4 131,81.4 	"/>
	<path class="st0" d="M134.5,84.7c-2.5,0-4.3,2-4.3,4.3c0,2.4,1.8,4.3,4.4,4.3c2.3,0,3.6-1.3,4-3.1h-2.4c-0.2,0.6-0.8,1-1.5,1
		c-1.2,0-1.8-0.8-2-1.7h6.1c0-0.3,0-0.5,0-0.7C138.8,86.7,137.1,84.7,134.5,84.7z M132.8,88.1c0.3-0.7,0.9-1.4,1.9-1.4
		c0.8,0,1.6,0.7,1.7,1.4H132.8z"/>
	<path class="st0" d="M144.2,84.7c-2.4,0-3.5,1.4-3.9,2.8h2.4c0.2-0.5,0.6-0.9,1.4-0.9c0.9,0,1.3,0.6,1.3,1.1v0.3h-1.5
		c-2.3,0-3.7,0.7-3.7,2.6c0,1.5,1.2,2.5,2.9,2.5c1.2,0,1.9-0.5,2.3-1.1l0.2,1h2.3v-5.3C147.8,86,146.6,84.7,144.2,84.7z M145.4,90.1
		c0,0.7-0.9,1.1-1.8,1.1c-0.6,0-1-0.3-1-0.8c0-0.4,0.4-0.8,1.3-0.8h1.5V90.1z"/>
	<path class="st0" d="M153.1,89.9v-2.6h2.3v-2.4h-2.3V82h-2.2l-0.4,2.9H149v2.4h1.5v3.1c0,2.2,1.5,2.9,3.1,2.9
		c0.6,0,1.2-0.1,1.9-0.2v-2.3c-0.5,0.1-0.9,0.1-1.2,0.1C153.4,90.9,153.1,90.6,153.1,89.9z"/>
	<path class="st0" d="M159.7,85.9l-0.2-1H157v8.2h2.7v-4.6c0.3-0.7,1.6-1.6,3.1-1.4v-2.4C160.8,84.5,160.2,85.3,159.7,85.9z"/>
	<path class="st0" d="M169.9,89.5c-0.3,0.8-0.9,1.4-1.8,1.4s-1.3-0.5-1.3-1.4v-4.6h-2.7V90c0,2.1,1.2,3.3,3.1,3.3
		c1.4,0,2.2-0.6,2.7-1.2l0.2,1h2.5v-8.2h-2.7V89.5z"/>
</g>
</svg>
