<?xml version="1.0" encoding="utf-8"?>
<!-- Generator: Adobe Illustrator 21.0.1, SVG Export Plug-In . SVG Version: 6.00 Build 0)  -->
<svg version="1.1" id="Warstwa_1" xmlns="http://www.w3.org/2000/svg" xmlns:xlink="http://www.w3.org/1999/xlink" x="0px" y="0px"
	 viewBox="0 0 595.3 841.9" style="enable-background:new 0 0 595.3 841.9;" xml:space="preserve">
<style type="text/css">
	.st0{fill:none;stroke:#1E1E1C;stroke-width:4;}
	.st1{fill:none;stroke:#1E1E1C;stroke-width:4;stroke-linecap:round;}
</style>
<path class="st0" d="M311.1,420.2c9.4-4.8,15.9-14.7,15.9-26c0-16.1-13.1-29.2-29.2-29.2c-16.1,0-29.2,13.1-29.2,29.2
	c0,11.3,6.5,21.1,15.9,26c-9.4,4.8-15.9,14.7-15.9,26c0,16.1,13.1,29.2,29.2,29.2c16.1,0,29.2-13.1,29.2-29.2
	C326.9,434.8,320.5,425,311.1,420.2z"/>
<circle class="st1" cx="297.6" cy="446.2" r="16.8"/>
<circle class="st1" cx="297.6" cy="446.2" r="16.8"/>
<path class="st0" d="M297,446v-70c0,0,13.7,3.8,13.7,17.5c0,13.7-13.5,17.5-13.5,17.5"/>
<polyline class="st0" points="291.6,442.3 297.8,448.5 304.3,442 "/>
</svg>
